<?xml version="1.0" standalone="no"?>
<!DOCTYPE svg PUBLIC "-//W3C//DTD SVG 20010904//EN"
 "http://www.w3.org/TR/2001/REC-SVG-20010904/DTD/svg10.dtd">
<svg version="1.0" xmlns="http://www.w3.org/2000/svg"
 width="640.000000pt" height="640.000000pt" viewBox="0 0 640.000000 640.000000"
 preserveAspectRatio="xMidYMid meet">
<metadata>
Created by potrace 1.11, written by Peter Selinger 2001-2013
</metadata>
<g transform="translate(0.000000,640.000000) scale(0.100000,-0.100000)"
fill="#000000" stroke="none">
<path d="M0 3200 l0 -3200 3200 0 3200 0 0 3200 0 3200 -3200 0 -3200 0 0
-3200z m3583 1411 c520 -104 889 -462 1027 -994 43 -166 60 -299 67 -524 l6
-203 -1183 0 -1182 0 7 -67 c22 -206 97 -356 249 -501 134 -127 274 -204 462
-253 77 -21 112 -24 264 -24 199 1 252 11 385 75 110 53 223 139 337 259 l96
100 209 -159 c114 -88 209 -164 211 -169 7 -21 -252 -267 -347 -330 -277 -184
-580 -271 -946 -271 -448 0 -819 143 -1096 422 -264 266 -406 617 -426 1048
-20 462 135 879 441 1186 231 230 498 364 835 419 130 22 444 14 584 -14z"/>
<path d="M3050 4175 c-360 -74 -653 -366 -716 -715 -7 -41 -13 -85 -14 -97 l0
-23 880 0 880 0 -6 58 c-11 107 -35 223 -63 302 -91 258 -295 426 -578 475
-104 18 -294 18 -383 0z"/>
</g>
</svg>
